<svg width="549" height="481" viewBox="0 0 549 481" fill="none" xmlns="http://www.w3.org/2000/svg">
<g clip-path="url(#clip0_8_4)">
<path d="M0 0H549V481H0V0Z" fill="white"/>
<path d="M148.64 201.279L148.929 201.082C151.394 199.39 153.599 196.103 155.53 193.785C165.096 182.303 182.931 183.8 191.307 195.861C194.219 199.651 194.39 204.533 196.519 208.599C197.761 210.97 201.427 212.055 202.441 214.718C204.765 220.823 200.172 226.664 197.846 232.005C200.957 235.788 200.03 238.962 194.595 239.871C194.083 239.957 193.797 239.483 193.501 239.133C192.953 236.398 195.821 232.625 196.691 229.898C197.17 228.395 197.359 227.455 197.661 225.912C195.509 228.649 192.07 235.792 190.567 239.116C188.741 243.717 185.628 244.653 182.225 247.459C182.289 249.498 182.311 251.767 182.47 253.783C193.51 255.962 208.058 259.858 214.693 269.717C216.437 272.352 217.619 275.32 218.164 278.433C219.011 283.026 218.753 292.882 218.684 297.842C218.617 302.679 218.753 310.934 218.23 315.5C215.835 316.696 207.28 320.948 205.094 321.659L202.708 322.779C198.902 324.796 193.989 326.946 190.023 328.785C180.85 333.064 171.567 337.102 162.183 340.893C158.348 342.43 150.974 345.572 147.113 346.518C146.873 338.118 147.05 328.002 147.168 319.594C147.419 301.703 146.219 296.121 131.062 285.611C132.205 279.849 133.28 275.894 135.421 270.457C139.974 258.893 152.532 257.465 163.159 253.281C163.294 251.428 163.22 249.394 163.193 247.52C157.637 244.398 153.388 241.843 150.271 235.945C149.17 233.862 148.337 231.86 147.15 229.791C142.466 226.756 137.397 228.078 136.784 219.495C136.428 214.498 138.003 208.492 141.112 204.486C143.152 201.858 145.59 201.558 148.64 201.279Z" fill="#D23A5F"/>
<path d="M148.64 201.279L148.929 201.082C151.394 199.39 153.599 196.103 155.53 193.785C165.096 182.303 182.931 183.8 191.307 195.861C194.219 199.651 194.39 204.533 196.519 208.599C197.761 210.97 201.427 212.055 202.441 214.718C204.765 220.823 200.172 226.664 197.846 232.005C200.957 235.788 200.03 238.962 194.595 239.871C194.083 239.957 193.797 239.483 193.501 239.133C192.953 236.398 195.821 232.625 196.691 229.898C197.17 228.395 197.359 227.455 197.661 225.912C195.509 228.649 192.07 235.792 190.567 239.116C190.392 239.018 190.275 238.881 190.121 238.738C190.942 236.659 195.164 227.625 196.885 226.419C197.728 226.508 197.393 226.328 197.938 226.944C198.079 228.041 197.465 229.302 197.177 230.592L197.518 230.951C199.44 227.654 201.302 224.103 202.261 220.338C202.781 218.299 202.554 216.714 201.849 214.802C200.857 212.116 196.882 210.893 196.172 209.518C194.63 206.531 193.61 201.785 192.315 198.618C192.192 198.318 189.41 194.49 188.925 193.818C187.644 192.043 182.872 188.997 180.676 188.14C171.197 184.445 161.741 187.182 155.272 194.923C153.494 197.051 152.05 200.242 149.341 201.394C148.985 201.545 149.152 201.486 148.64 201.279Z" fill="#9C2D65"/>
<path d="M202.708 322.779C202.424 320.795 202.994 289.187 203.109 288.903C203.295 288.436 203.502 288.428 203.93 288.276C205.141 289.705 204.854 317.326 205.094 321.659L202.708 322.779Z" fill="white"/>
<path d="M231.21 201.341C226.121 195.289 223.159 185.746 224.262 177.953C224.85 173.795 226.867 169.774 230.441 167.356C238.266 162.3 248.848 161.487 257.829 162.732C273.235 164.868 279.869 174.367 275.873 189.441C274.974 192.835 273.481 196.321 272.889 199.78C272.763 204.364 272.085 211.931 268.608 215.111C267.038 216.545 265.863 216.786 263.89 217.438C268.439 220.17 273.471 222.625 278.162 225.413C285.249 229.624 293.436 232.693 295.575 241.779C296.54 245.838 296.256 252.695 296.24 257.088L296.195 273.749C296.184 275.047 296.061 280.522 296.431 281.414C294.878 282.289 287.898 284.825 285.633 285.742C277.749 288.951 269.897 292.238 262.075 295.601C253.447 299.413 244.842 303.277 236.26 307.194C234.261 308.113 224.807 312.607 223.139 313.082C222.843 310.572 223.21 307.727 223.087 305.178C222.51 293.201 225.529 279.489 219.791 268.454C217.094 263.267 212.778 260.628 208.216 257.314C210.948 247.585 214.996 232.64 224.406 227.299C228.848 224.777 233.493 222.971 237.602 219.67C238.357 219.064 241.105 217.877 242.111 217.423C234.658 214.569 235.99 213.029 233.797 205.978C233.568 205.239 231.767 202.402 231.21 201.341Z" fill="#B8318A"/>
<path d="M231.21 201.341C226.121 195.289 223.159 185.746 224.262 177.953C224.85 173.795 226.867 169.774 230.441 167.356C238.266 162.3 248.848 161.487 257.829 162.732C273.235 164.868 279.869 174.367 275.872 189.441C274.974 192.835 273.481 196.321 272.889 199.78C271.683 196.877 275.336 191.037 275.808 187.756C276.725 181.371 276.821 172.751 270.852 168.524L270.246 168.421L270.064 168.607C268.651 170.007 268.712 169.437 266.907 169.478C263.182 169.562 259.921 167.419 256.258 167.77C255.053 166.612 255.791 166.544 254.383 166.202C252.281 166.916 253.535 166.974 251.377 166.927C247.434 166.967 244.819 169.697 240.965 167.826C236.663 165.736 235.093 164.755 231.08 167.65C221.715 174.406 223.863 189.032 229.482 197.48C229.98 198.229 231.579 200.56 231.21 201.341Z" fill="#9C2D65"/>
<path d="M78.003 252.542C76.4381 244.486 73.7813 233.331 82.0833 227.612C87.3899 223.956 96.2876 222.366 102.228 225.281C105.382 227.051 107.593 227.7 111.095 228.389C122.65 230.664 119.627 245.708 118.265 252.813C124.133 256.076 118.336 261.192 116.394 265.22C114.336 269.489 112.875 273.454 108.887 276.336C107.44 277.382 107.661 280.481 107.653 282.047C109.681 282.959 113.603 283.884 115.908 284.562C123.438 286.801 131.459 290.203 136.758 296.169C142.863 303.089 142.95 311.872 142.739 320.551C142.518 329.71 142.969 339.105 142.364 348.218C140.037 349.259 131.446 351.999 128.979 352.42L127.071 353.012C111.923 357.626 88.1317 361.822 72.4224 362.428L70.2382 362.503C68.1184 362.774 58.428 363.437 56.6317 362.868C56.8987 362.646 56.9923 362.294 56.9853 361.948C56.654 345.451 56.7596 328.946 56.7403 312.449C56.7373 309.982 57.0898 306.91 57.5523 304.553C59.8008 293.209 68.536 288.013 78.8019 284.747C80.9515 284.063 87.3637 282.6 87.7561 280.026C88.3177 276.344 83.9959 275.366 82.5146 271.942C81.4418 269.462 80.1771 266.078 79.075 263.52C76.4534 260.703 74.4509 259.68 75.2261 254.947C75.4119 253.812 76.9319 253.081 78.003 252.542Z" fill="#DB4A41"/>
<path d="M70.2382 362.503C70.2398 357.715 70.1774 320.913 70.9907 319.407L71.444 319.321C72.5731 320.71 72.1801 328.488 72.1855 330.52L72.3353 343.928L72.4817 356.063C72.4991 357.616 72.6683 360.991 72.4224 362.428L70.2382 362.503Z" fill="white"/>
<path d="M127.071 353.012C126.932 348.194 126.79 319.787 127.941 317.302L128.371 317.669C129.334 320.634 128.978 347.765 128.979 352.42L127.071 353.012Z" fill="white"/>
<path d="M293.86 195.408C295.122 193.677 296.53 191.681 296.929 189.542C297.527 186.325 297.178 181.608 296.851 178.286C295.817 167.811 295.522 155.814 300.813 146.359C303.457 141.634 306.858 138.078 312.244 136.595C317.656 135.106 321.264 137.247 325.77 139.885C328.135 139.37 330.952 138.624 333.298 138.477C348.644 137.518 356.724 151.453 353.143 165.347C352.261 168.762 351.223 170.724 349.636 173.695C347.808 177.995 348.347 182.68 345.227 186.541C343.251 189.397 336.434 188.66 338.361 193.364C339.123 195.216 340.881 196.48 342.715 197.154C353.459 201.11 365.546 204.311 368.074 217.161C369.109 222.418 367.468 255.5 368.538 257.001C365.423 258.265 357.946 260.27 354.392 261.333C347.007 263.543 339.664 265.892 332.367 268.379C325.328 270.765 318.323 273.256 311.359 275.854C308.938 276.747 303.331 279.047 301.226 279.532L301.119 261.74C301.124 243.364 303.604 233.388 284.783 223.799C285.341 222.333 286.638 217.891 287.083 216.39C290.26 205.701 294.806 203.351 304.99 199.854C308.097 198.605 312.126 198.01 314.911 196.153C317.672 194.311 317.723 191.915 315.975 189.423C313.951 187.569 312.386 186.167 310.027 184.765C308.526 185.796 305.984 188.328 304.481 189.643C301.127 192.571 297.913 193.718 293.86 195.408Z" fill="#7C36A6"/>
<path d="M293.86 195.408C295.122 193.677 296.53 191.681 296.929 189.542C297.527 186.325 297.178 181.608 296.851 178.286C295.817 167.811 295.522 155.814 300.813 146.359C303.457 141.634 306.858 138.078 312.244 136.595C317.656 135.106 321.264 137.247 325.77 139.885C328.135 139.37 330.952 138.624 333.298 138.477C348.644 137.518 356.724 151.453 353.143 165.347C352.261 168.762 351.223 170.724 349.636 173.695C349.333 172.936 349.277 173.169 349.701 172.333C352.18 167.431 354.432 160.985 352.848 155.514C352.593 154.632 349.063 153.906 348.476 153.369C344.208 149.479 340.439 149.22 334.962 149.75C333.869 149.856 331.684 149.176 330.494 149.834C328.392 151.114 329.566 151.329 326.733 151.005C325.741 151.391 323.202 153.733 323.154 153.726C319.482 153.205 318.868 155.19 316.326 157.305C315.662 157.858 314.361 156.481 313.171 156.692C309.987 159.727 310.086 156.981 307.343 157.61C306.888 158.031 306.424 158.446 305.955 158.855C304.939 158.6 303.674 158.008 302.877 158.3L301.979 159.336C301.127 159.195 299.532 158.767 298.889 159.04C298.269 160.559 299.047 160.216 298.637 160.9C298.034 160.695 298.31 160.805 297.833 160.07C295.969 163.011 298.095 181.854 297.924 186.57C297.841 188.846 296.843 191.241 296.969 193.138C298.897 193.481 303.958 189.425 305.322 187.962C307.319 185.827 310.595 182.491 313.024 186.119C313.614 186.981 316.061 187.869 316.088 189.25L315.975 189.423C313.951 187.569 312.386 186.167 310.027 184.765C308.526 185.796 305.984 188.328 304.481 189.643C301.127 192.571 297.913 193.718 293.86 195.408Z" fill="#5B2587"/>
<path d="M361.973 200.458C364.637 183.339 370.827 178.538 386.688 173.566C388.133 173.113 391.484 172.208 392.621 171.256C393.65 170.393 393.387 167.465 392.838 166.373C392.085 164.874 389.648 163.148 388.766 161.645C387.348 159.224 386.072 156.527 384.761 154.027C381.453 147.706 377.77 141.633 377.523 134.273C377.389 130.201 379.057 125.505 382 122.653C387.436 117.383 395.848 116.018 403.126 115.98C410.134 115.944 419.457 117.58 424.671 122.607C428.413 125.844 430.257 133.999 428.105 138.58C424.869 145.466 422.357 153.34 419.267 160.327C418.044 163.085 413.238 165.272 413.723 168.835C413.83 169.627 413.846 170.787 414.699 171.235C422.813 174.58 431.037 176.136 437.811 182.211C445.658 189.248 443.631 197.988 443.84 207.441C444.087 218.398 443.385 229.673 443.803 240.649C437.953 241.988 431.389 242.823 425.419 243.976C412.726 246.336 400.105 249.066 387.573 252.162C383.745 253.081 376.668 254.586 373.143 255.732C372.939 252.776 373.049 248.627 373.041 245.6L373.009 227.516C373.017 215.083 373.266 208.407 361.973 200.458Z" fill="#5F67CA"/>
<path d="M438.205 176.165C443.452 171.359 447.336 169.716 454.005 167.674C455.686 167.159 460.182 165.76 460.053 163.697C459.018 163.398 456.321 164.654 454.362 164.598C452.563 164.551 450.864 163.751 449.681 162.393C447.087 159.38 446.306 154.367 446.727 150.583C447.666 142.15 450.569 128.049 454.638 120.722C455.973 118.267 457.758 116.084 459.897 114.286C468.87 106.783 482.134 106.672 489.859 115.983C495.553 122.935 496.413 132.303 498.15 140.87C499.625 148.146 503.949 158.127 496.714 163.628C493.288 166.232 488.717 164.704 484.862 164.046C490.545 168.015 496.931 169.086 502.566 173.372C511.17 179.92 510.415 187.251 510.409 196.886L510.339 221.644C510.326 224.665 510.114 231.87 510.468 234.564C511.02 234.966 511.506 234.845 512.326 234.9L512.272 235.142C511.313 235.053 509.436 235.151 508.407 235.175C505.777 235.18 499.845 235.085 497.346 235.382L495.279 235.45C492.089 235.812 488.669 236.057 485.449 236.227C473.161 236.877 461.031 238.571 448.816 239.839C448.212 228.875 448.866 216.873 448.714 205.843C448.542 193.469 450.22 184.094 438.205 176.165Z" fill="#6095DA"/>
<path d="M495.279 235.45C495.387 226.611 495.443 217.772 495.451 208.933C495.459 206.927 495.175 195.02 496.186 194.006L496.625 194.188C497.226 195.679 497.684 234.893 497.346 235.382L495.279 235.45Z" fill="white"/>
<path d="M497.346 235.382C499.845 235.085 505.777 235.18 508.407 235.175C506.603 235.51 505.656 235.358 503.922 235.909L503.868 236.303C505.394 237.17 504.67 236.497 506.032 236.811C503.619 237.457 492.585 238.446 489.473 238.906C479.879 240.322 470.188 241.631 460.61 243.221C427.799 248.695 395.427 256.529 363.745 266.662C336.158 275.717 309.086 286.278 282.655 298.3C209.859 331.037 136.552 380.092 52.9152 367.437C43.7629 365.986 34.7277 363.874 25.8808 361.115C26.3395 360.804 27.4562 360.847 28.3606 360.624C32.0661 360.897 36.048 361.624 39.802 361.959C45.4354 362.461 50.9825 362.702 56.6317 362.868C58.428 363.437 68.1184 362.774 70.2382 362.503L72.4224 362.428C88.1316 361.822 111.923 357.626 127.071 353.012L128.979 352.42C131.446 351.999 140.037 349.259 142.364 348.218C143.904 347.577 145.53 347.055 147.113 346.518C150.974 345.572 158.348 342.43 162.183 340.893C171.567 337.102 180.85 333.064 190.023 328.785C193.989 326.946 198.902 324.796 202.708 322.779L205.094 321.659C207.28 320.948 215.835 316.696 218.23 315.5L223.139 313.082C224.807 312.607 234.261 308.113 236.26 307.194C244.842 303.277 253.447 299.413 262.075 295.601C269.897 292.238 277.749 288.951 285.633 285.742C287.898 284.825 294.878 282.289 296.431 281.414C297.988 280.763 299.647 280.149 301.226 279.532C303.331 279.047 308.938 276.747 311.359 275.854C318.323 273.256 325.328 270.765 332.367 268.379C339.664 265.892 347.007 263.543 354.392 261.333C357.946 260.27 365.423 258.265 368.538 257.001C369.942 256.557 371.696 256.128 373.143 255.732C376.668 254.586 383.745 253.081 387.573 252.162C400.105 249.066 412.726 246.336 425.419 243.976C431.389 242.823 437.953 241.988 443.803 240.649C445.076 240.294 447.422 240.034 448.816 239.839C461.031 238.571 473.161 236.877 485.45 236.227C488.669 236.057 492.089 235.812 495.279 235.45L497.346 235.382Z" fill="#333034"/>
<path d="M512.326 234.9C514.966 234.855 522.102 234.524 524.4 234.828L524.595 235.029C523.295 235.436 521.108 235.673 519.749 235.642C515.468 236.078 510.272 236.714 506.032 236.811C504.67 236.497 505.394 237.17 503.868 236.303L503.922 235.909C505.656 235.358 506.603 235.51 508.407 235.175C509.436 235.151 511.313 235.053 512.272 235.142L512.326 234.9Z" fill="#060506"/>
<path d="M512.326 234.9C514.966 234.855 522.102 234.524 524.4 234.828L524.595 235.029C523.295 235.436 521.108 235.673 519.749 235.642C518.797 234.888 514.004 235.215 512.272 235.142L512.326 234.9Z" fill="#241B20"/>
<path d="M25.8808 361.115C24.3745 360.889 20.7346 359.948 19.542 358.962C20.7126 358.873 26.7847 360.292 28.3606 360.624C27.4562 360.847 26.3395 360.804 25.8808 361.115Z" fill="#241B20"/>
</g>
<defs>
<clipPath id="clip0_8_4">
<rect width="549" height="481" fill="white"/>
</clipPath>
</defs>
</svg>
