<svg width="514" height="256" viewBox="128 112 514 256" fill="none" xmlns="http://www.w3.org/2000/svg">
  <path d="M263.686 200.848C268.501 194.72 272.816 189.083 280.696 186.751C286.279 185.139 292.274 185.814 297.359 188.627C305.684 193.274 307.951 200.518 310.308 208.905C321.106 216.569 317.051 221.831 311.939 231.708L310.737 230.218L310.55 227.968C307.583 231.972 306.172 236.802 303.747 241.004C301.19 245.431 295.889 244.664 296.241 250.822C299.474 256.576 318.42 258.019 325.447 265.727C336.256 277.58 332.76 299.942 332.287 315.466C330.545 316.314 319.974 321.349 318.962 322.123L316.539 322.761C312.556 324.918 309.918 326.081 305.704 327.782C296.998 332.351 270.839 343.602 261.087 346.554C261.192 334.258 262.575 310.738 258.917 299.761C255.532 292.932 250.922 289.712 244.934 285.5C246.659 278.205 248.164 271.229 252.559 264.979C257.638 257.757 272.724 257.678 276.966 251.188C277.087 250.27 277.512 248.022 276.55 247.448C267.411 241.995 265.535 238.973 261.205 229.595C259.864 229.146 256.506 228.045 255.446 227.292C249.084 222.773 249.432 212.8 253.502 206.911C256.874 202.03 258.357 201.886 263.686 200.848Z" fill="#D23A5F"/>
  <path d="M258.917 299.761L259.068 299.409C260.497 296.013 259.107 295.771 261.092 293.624C266.474 297.781 261.45 308.779 262.017 314.227C262.794 321.675 260.869 337.659 262.542 343.925C268.377 345.184 303.132 325.801 305.704 327.782C296.998 332.351 270.839 343.602 261.087 346.554C261.192 334.258 262.575 310.738 258.917 299.761Z" fill="#DB4A42"/>
  <path d="M316.539 322.761C316.695 318.595 316.591 293.044 317.899 291.358L317.559 290.957L318.013 289.986C319.013 298.72 319.124 313.21 318.962 322.123L316.539 322.761Z" fill="white"/>
  <path d="M343.677 198.841C333.045 182.648 336.42 165.614 357.464 162.701C366.608 161.435 378.168 161.95 385.412 168.244C396.009 177.452 388.099 192.104 386.485 203.267C386.304 204.515 386.245 205.636 385.906 206.863C385.747 210.026 384.685 212.067 383.471 214.97L377.978 217.76C418.346 236.439 410.027 241.201 410.223 281.543C384.583 291.822 362.13 302.257 337.096 313.13C337.125 307.993 337.189 302.41 337.266 297.317C337.563 277.618 338.819 269.126 322.108 257.262L322.172 257.019C329.297 230.684 333.383 230.221 355.546 217.46C347.936 213.764 348.936 207.481 343.677 198.841Z" fill="#B9318A"/>
  <path d="M168.349 362.798L169.726 362.69C170 362.418 170.327 362.093 170.707 361.715C171.863 345.353 169.13 319.104 171.659 303.754C173.967 289.736 190.431 286.413 200.079 281.403C200.566 281.15 201.594 279.832 201.535 279.685C199.243 273.894 192.94 265.59 190.11 260.204C187.192 254.649 191.436 254.931 191.385 251.358C191.303 245.65 189.862 240.938 190.818 235.407C191.447 231.77 193.116 229.604 195.774 227.703C198.677 225.627 207.91 222.469 211.23 223.926C216.791 226.366 228.849 227.814 231.965 233.181C234.362 237.31 233.381 242.207 233.164 246.674C233.134 247.304 232.782 252.772 232.782 252.772C233.439 254.031 235.198 256.002 234.581 257.981C232.69 264.044 223.428 274.488 222.041 280.189C222.867 282.93 224.995 283.31 227.6 284.022C237.939 286.427 253.985 293.687 255.788 305.866C257.616 318.221 256.632 335.353 256.446 348.261C252.072 349.689 247.299 351.348 242.927 352.666L241.054 352.973C222.838 358.399 205.443 361.035 186.482 362.595L184.193 362.386C178.819 363.123 173.753 363.391 168.349 362.798Z" fill="#DB4A42"/>
  <path d="M184.193 362.386C184.202 356.631 183.617 322.863 185.768 320.219C186.727 332.494 186.403 349.874 186.482 362.595L184.193 362.386Z" fill="white"/>
  <path d="M241.054 352.973C241.078 348.79 240.79 319.456 242.086 318.018C243.344 320.822 242.974 347.807 242.927 352.666L241.054 352.973Z" fill="white"/>
  <path d="M427.651 187.099C419.804 181.703 416.736 196.227 409.211 194.077C410.448 191.492 411.371 186.124 410.983 183.342C408.555 165.946 410.838 123.696 439.827 139.867C461.468 135.051 472.091 147.176 465.743 169.056C464.733 172.533 463.011 175.357 461.927 179.146C460.906 188.907 453.619 188.056 452.504 192.353C455.167 199.687 478.48 202.033 480.86 213.048C483.845 226.856 482.16 242.94 482.141 257.172C462.45 263.392 442.782 269.111 423.521 276.632C420.784 277.701 417.946 278.673 415.143 279.555C415.107 274.774 415.207 269.742 415.207 264.96C415.205 243.492 418.306 235.951 398.874 223.741C405.018 202.6 406.623 204.607 426.829 197.09C429.239 196.194 430.137 194.638 430.897 192.377C430.714 189.916 429.356 188.872 427.651 187.099Z" fill="#7C36A6"/>
  <path d="M475.914 200.154C479.018 185.666 483.265 178.962 498.141 174.344C501.435 173.322 508.793 171.951 506.756 167.708C501.12 156.32 490.248 144.737 491.711 131.134C493.744 112.222 531.596 112.152 540.33 124.097C546.805 132.951 537.9 149.075 534.068 157.652C532.53 161.095 528.997 165.354 528.185 169.454C529.777 174.072 555.987 177.743 557.166 190.545C558.689 207.073 557.793 224.123 557.708 240.758C536.065 244.597 508.14 249.613 487.026 255.901C486.975 244.029 487.303 231.625 486.999 219.813C486.769 210.925 482.286 205.641 475.914 200.154Z" fill="#5F67CA"/>
  <path d="M552.141 175.94C558.861 170.293 572.196 166.619 573.714 164.274C571.246 164.091 568.897 164.127 566.429 164.138C553.645 158.66 565.388 120.173 574.085 114.265C604.766 93.3367 613.224 133.648 614.507 155.9C615.1 166.183 605.067 165.196 598.529 164.342C608.089 169.451 622.564 172.606 623.818 185.264C625.364 200.889 624.252 219.14 624.378 234.935C603.763 235.629 583.192 237.287 562.732 239.904C562.505 224.876 563.129 209.167 562.601 194.193C562.326 186.368 558.014 180.737 552.141 175.94Z" fill="#6095DA"/>
  <path d="M609.693 194.054C612.521 196.939 611.533 229.651 611.56 235.592L610.179 235.035C608.486 232.718 609.48 199.478 609.693 194.054Z" fill="white"/>
  <path d="M624.378 234.935L636.628 235.11C622.847 237.514 603.798 238.783 588.537 241.059C550.679 246.57 513.347 255.228 476.929 266.946C446.846 276.813 417.397 288.519 388.751 302C312.022 338.126 229.986 389.232 141.863 361.675C139.999 361.092 136.33 360.583 134.943 359.487C147.208 360.757 155.435 362.434 168.349 362.798C173.753 363.391 178.819 363.123 184.193 362.386L186.482 362.595C205.443 361.035 222.838 358.399 241.054 352.973L242.927 352.666C247.299 351.348 252.072 349.689 256.446 348.261C257.496 347.769 259.892 346.985 261.087 346.554C270.839 343.602 296.998 332.351 305.704 327.782C309.918 326.081 312.556 324.918 316.539 322.761L318.962 322.123C319.974 321.349 330.545 316.314 332.287 315.466L337.096 313.13C362.13 302.257 384.583 291.822 410.223 281.543L415.143 279.555C417.946 278.673 420.784 277.701 423.521 276.632C442.782 269.111 462.45 263.392 482.141 257.172C483.407 256.744 485.654 256.249 487.026 255.901C508.14 249.613 536.065 244.597 557.708 240.758L562.732 239.904C583.192 237.287 603.763 235.629 624.378 234.935Z" fill="#C8D8E8" opacity="0.86"/>
  <path d="M310.737 230.218L311.939 231.708C314.535 235.323 313.717 239.13 308.982 239.47L307.847 238.24C307.383 235.507 309.349 232.781 310.737 230.218Z" fill="#972A6C"/>
</svg>
